# Blender v2.90.0 OBJ File: ''
# www.blender.org
mtllib dogecube.mtl
o Cube_Cube.002
v -1.000000 -1.000000 1.000000
v -1.000000 1.000000 1.000000
v -1.000000 -1.000000 -1.000000
v -1.000000 1.000000 -1.000000
v 1.000000 -1.000000 1.000000
v 1.000000 1.000000 1.000000
v 1.000000 -1.000000 -1.000000
v 1.000000 1.000000 -1.000000
vt 0.855043 0.999924
vt 0.281934 0.000076
vt 0.855043 0.000076
vt 0.852446 0.999924
vt 0.279336 0.000076
vt 0.852446 0.000076
vt 0.289728 0.000076
vt 0.862837 0.999924
vt 0.289728 0.999924
vt 0.283233 0.000076
vt 0.856342 0.999924
vt 0.283233 0.999924
vt 0.855043 0.000076
vt 0.281934 0.999924
vt 0.280635 0.000076
vt 0.853745 0.999924
vt 0.280635 0.999924
vt 0.281934 0.999924
vt 0.279337 0.999924
vt 0.862837 0.000076
vt 0.856342 0.000076
vt 0.855043 0.999924
vt 0.853745 0.000076
vn -1.0000 0.0000 0.0000
vn 0.0000 0.0000 -1.0000
vn 1.0000 0.0000 0.0000
vn 0.0000 0.0000 1.0000
vn 0.0000 -1.0000 0.0000
vn 0.0000 1.0000 0.0000
usemtl Material.001
s off
f 2/1/1 3/2/1 1/3/1
f 4/4/2 7/5/2 3/6/2
f 8/7/3 5/8/3 7/9/3
f 6/10/4 1/11/4 5/12/4
f 7/13/5 1/14/5 3/2/5
f 4/15/6 6/16/6 8/17/6
f 2/1/1 4/18/1 3/2/1
f 4/4/2 8/19/2 7/5/2
f 8/7/3 6/20/3 5/8/3
f 6/10/4 2/21/4 1/11/4
f 7/13/5 5/22/5 1/14/5
f 4/15/6 2/23/6 6/16/6
